
        <svg xmlns="http://www.w3.org/2000/svg" xmlns:xlink="http://www.w3.org/1999/xlink" version="1.1" width="3300" height="3125.5130215170084" viewBox="0 0 3300 3125.5130215170084">
			
			<g transform="scale(15) translate(10, 10)">
				<defs id="SvgjsDefs1081"><linearGradient id="SvgjsLinearGradient1088"><stop id="SvgjsStop1089" stop-color="#51504f" offset="0"/><stop id="SvgjsStop1090" stop-color="#939598" offset="0.5"/><stop id="SvgjsStop1091" stop-color="#51504f" offset="1"/></linearGradient><linearGradient id="SvgjsLinearGradient1092"><stop id="SvgjsStop1093" stop-color="#51504f" offset="0"/><stop id="SvgjsStop1094" stop-color="#939598" offset="0.5"/><stop id="SvgjsStop1095" stop-color="#51504f" offset="1"/></linearGradient></defs><g id="SvgjsG1082" featureKey="AgVF85-0" transform="matrix(1.25,0,0,1.25,37.5,-12.5)" fill="#fff"><path xmlns="http://www.w3.org/2000/svg" d="M76.373,57.729c0.108,0,0.213-0.019,0.311-0.054C84.172,57.144,90,50.932,90,43.424c0-7.664-6.075-13.939-13.676-14.29  c0.218-1.057,0.328-2.124,0.328-3.188C76.652,17.153,69.478,10,60.659,10c-6.272,0-11.964,3.705-14.541,9.342  c-2.002-1.239-4.277-1.888-6.653-1.888c-5.397,0-10.201,3.439-11.973,8.465c-0.529-0.055-1.024-0.082-1.498-0.082  C17.175,25.837,10,32.99,10,41.783s7.175,15.946,15.994,15.946H49v7.507H20.446c-3.033,0-5.545,2.242-5.985,5.155  C11.932,70.833,10,73.03,10,75.683c0,2.969,2.416,5.385,5.386,5.385c2.969,0,5.385-2.416,5.385-5.385c0-2.59-1.84-4.758-4.281-5.269  c0.406-1.814,2.022-3.177,3.957-3.177h15.009v12.095c-2.492,0.471-4.385,2.657-4.385,5.284c0,2.969,2.416,5.385,5.385,5.385  c2.97,0,5.386-2.416,5.386-5.385c0-2.626-1.893-4.813-4.386-5.284V67.236h25.09v12.095c-2.492,0.471-4.386,2.657-4.386,5.284  c0,2.969,2.416,5.385,5.386,5.385c2.969,0,5.385-2.416,5.385-5.385c0-2.626-1.893-4.812-4.385-5.284V67.236h15.009  c1.935,0,3.552,1.363,3.958,3.177c-2.441,0.511-4.281,2.679-4.281,5.269c0,2.969,2.416,5.385,5.385,5.385S90,78.651,90,75.683  c0-2.652-1.932-4.85-4.46-5.291c-0.44-2.913-2.952-5.155-5.986-5.155H51v-7.507H76.373z M18.771,75.683  c0,1.866-1.519,3.385-3.385,3.385c-1.867,0-3.386-1.519-3.386-3.385s1.519-3.385,3.386-3.385  C17.252,72.298,18.771,73.816,18.771,75.683z M39.841,84.615c0,1.866-1.519,3.385-3.386,3.385c-1.866,0-3.385-1.519-3.385-3.385  s1.519-3.385,3.385-3.385C38.322,81.23,39.841,82.749,39.841,84.615z M66.93,84.615c0,1.866-1.519,3.385-3.385,3.385  c-1.867,0-3.386-1.519-3.386-3.385s1.519-3.385,3.386-3.385C65.411,81.23,66.93,82.749,66.93,84.615z M88,75.683  c0,1.866-1.519,3.385-3.385,3.385s-3.385-1.519-3.385-3.385s1.519-3.385,3.385-3.385S88,73.816,88,75.683z M12,41.783  c0-7.69,6.277-13.946,13.994-13.946c0.627,0,1.28,0.054,2.055,0.168c0.499,0.065,0.976-0.236,1.11-0.723  c1.274-4.609,5.513-7.828,10.306-7.828c2.363,0,4.611,0.764,6.501,2.208c0.253,0.194,0.582,0.253,0.889,0.166  c0.306-0.09,0.55-0.319,0.659-0.619C49.512,15.701,54.795,12,60.659,12c7.716,0,13.993,6.256,13.993,13.946  c0,1.311-0.192,2.63-0.571,3.922c-0.091,0.311-0.026,0.646,0.174,0.899s0.515,0.396,0.834,0.381l0.236-0.015  c0.108-0.008,0.217-0.016,0.327-0.016C82.461,31.118,88,36.639,88,43.424c0,6.529-5.129,11.919-11.677,12.271  c-0.07,0.004-0.14,0.017-0.206,0.035H25.994C18.277,55.729,12,49.474,12,41.783z"/></g><g id="SvgjsG1083" featureKey="vRT5cH-0" transform="matrix(3.1036603666582407,0,0,3.1036603666582407,-5.152013577566942,105.97158099685247)" fill="#fff"><path d="M6.08 13.36 l-2.64 -0.000039062 l0 6.06 c0 0.24 -0.08666 0.44666 -0.26 0.62 s-0.38 0.26 -0.62 0.26 c-0.25334 0 -0.46668 -0.08666 -0.64002 -0.26 s-0.26 -0.38 -0.26 -0.62 l0 -14.02 c0 -0.24 0.08666 -0.44666 0.26 -0.62 s0.38668 -0.26 0.64002 -0.26 l3.52 0 c0.61334 0 1.19 0.11666 1.73 0.35 s1.01 0.55 1.41 0.95 s0.71666 0.86666 0.95 1.4 s0.35 1.1067 0.35 1.72 s-0.11666 1.1867 -0.35 1.72 s-0.55 1 -0.95 1.4 s-0.87 0.71666 -1.41 0.95 s-1.1167 0.35 -1.73 0.35 z M6.08 6.279999999999999 l-2.64 0 l0 5.3 l2.64 0 c0.36 0 0.70334 -0.07 1.03 -0.21 s0.61 -0.33 0.85 -0.57 s0.43 -0.52 0.57 -0.84 s0.21 -0.66 0.21 -1.02 s-0.07 -0.70334 -0.21 -1.03 s-0.33 -0.61 -0.57 -0.85 s-0.52334 -0.43 -0.85 -0.57 s-0.67 -0.21 -1.03 -0.21 z M19.439999999999998 15.620000000000001 l-7.58 -0.000058594 c0.05334 0.41334 0.17668 0.79668 0.37002 1.15 s0.44 0.66 0.74 0.92 s0.64 0.46334 1.02 0.61 s0.78334 0.22 1.21 0.22 c0.25334 0 0.48334 -0.02 0.69 -0.06 s0.4 -0.10334 0.58 -0.19 s0.36 -0.19332 0.54 -0.31998 s0.37666 -0.27 0.59 -0.43 c0.08 -0.06666 0.16334 -0.12332 0.25 -0.16998 s0.20332 -0.07 0.34998 -0.07 c0.25334 0 0.46668 0.08666 0.64002 0.26 s0.26 0.38 0.26 0.62 c0 0.14666 -0.02666 0.26666 -0.08 0.36 s-0.11334 0.18 -0.18 0.26 c-0.21334 0.24 -0.46334 0.45666 -0.75 0.65 s-0.59332 0.35334 -0.91998 0.48 s-0.66 0.22332 -1 0.28998 s-0.66334 0.1 -0.97 0.1 c-0.70666 0 -1.3733 -0.13666 -2 -0.41 s-1.1733 -0.64334 -1.64 -1.11 s-0.83666 -1.01 -1.11 -1.63 s-0.41 -1.2833 -0.41 -1.99 s0.13666 -1.3733 0.41 -2 s0.64334 -1.1733 1.11 -1.64 s1.0133 -0.83666 1.64 -1.11 s1.2933 -0.41 2 -0.41 c0.68 0 1.32 0.11334 1.92 0.34 s1.1333 0.55 1.6 0.97 s0.84 0.92 1.12 1.5 s0.44 1.2167 0.48 1.91 c0.01334 0.26666 -0.07 0.48332 -0.25 0.64998 s-0.39 0.25 -0.63 0.25 z M15.2 11.78 c-0.69334 0 -1.32 0.19 -1.88 0.57 s-0.97334 0.87666 -1.24 1.49 l6.22 0 c-0.25334 -0.62666 -0.66334 -1.1267 -1.23 -1.5 s-1.19 -0.56 -1.87 -0.56 z M24.48 10.58 c0.21334 -0.18666 0.45006 -0.33002 0.71006 -0.43002 s0.52334 -0.15 0.79 -0.15 c0.65334 0 1.19 0.16 1.61 0.48 s0.74334 0.78 0.97 1.38 c0.05334 0.13334 0.07334 0.27334 0.06 0.42 s-0.05668 0.28 -0.13002 0.4 s-0.17334 0.21666 -0.3 0.29 s-0.27666 0.11 -0.45 0.11 c-0.14666 0 -0.27666 -0.03334 -0.39 -0.1 s-0.21 -0.14666 -0.29 -0.24 c-0.06666 -0.08 -0.12332 -0.16334 -0.16998 -0.25 s-0.09666 -0.17666 -0.15 -0.27 c-0.09334 -0.14666 -0.19668 -0.26666 -0.31002 -0.36 s-0.30334 -0.12668 -0.57 -0.10002 c-0.17334 0.01334 -0.34 0.06668 -0.5 0.16002 s-0.3 0.20668 -0.42 0.34002 s-0.21666 0.28334 -0.29 0.45 s-0.11 0.33666 -0.11 0.51 l0 6.2 c0 0.24 -0.08666 0.44666 -0.26 0.62 s-0.38 0.26 -0.62 0.26 c-0.25334 0 -0.46668 -0.08666 -0.64002 -0.26 s-0.26 -0.38 -0.26 -0.62 l0 -8.54 c0 -0.24 0.08666 -0.44666 0.26 -0.62 s0.38668 -0.26 0.64002 -0.26 c0.18666 0 0.35332 0.05334 0.49998 0.16 s0.25332 0.24666 0.31998 0.42 z M35.7 11.78 l-2.58 0 l0 7.64 c0 0.24 -0.08666 0.44666 -0.26 0.62 s-0.38 0.26 -0.62 0.26 c-0.25334 0 -0.46668 -0.08666 -0.64002 -0.26 s-0.26 -0.38 -0.26 -0.62 l0 -7.64 l-1.2 0 c-0.24 0 -0.44666 -0.08666 -0.62 -0.26 s-0.26 -0.38668 -0.26 -0.64002 c0 -0.24 0.08666 -0.44666 0.26 -0.62 s0.38 -0.26 0.62 -0.26 l1.2 0 l0 -2.86 c0 -0.36 0.07 -0.7 0.21 -1.02 s0.32666 -0.59666 0.56 -0.83 s0.51 -0.42 0.83 -0.56 s0.66 -0.21 1.02 -0.21 s0.7 0.07 1.02 0.21 s0.59666 0.32666 0.83 0.56 s0.42 0.51 0.56 0.83 s0.21 0.66 0.21 1.02 c0 0.24 -0.08666 0.44666 -0.26 0.62 s-0.38 0.26 -0.62 0.26 s-0.44666 -0.08666 -0.62 -0.26 s-0.26 -0.38 -0.26 -0.62 c0 -0.22666 -0.08666 -0.42666 -0.26 -0.6 s-0.37334 -0.26 -0.6 -0.26 s-0.42332 0.08666 -0.58998 0.26 s-0.25 0.37334 -0.25 0.6 l0 2.86 l2.58 0 c0.24 0 0.44666 0.08666 0.62 0.26 s0.26 0.38 0.26 0.62 c0 0.25334 -0.08666 0.46668 -0.26 0.64002 s-0.38 0.26 -0.62 0.26 z M46.78 15.620000000000001 l-7.58 -0.000058594 c0.05334 0.41334 0.17668 0.79668 0.37002 1.15 s0.44 0.66 0.74 0.92 s0.64 0.46334 1.02 0.61 s0.78334 0.22 1.21 0.22 c0.25334 0 0.48334 -0.02 0.69 -0.06 s0.4 -0.10334 0.58 -0.19 s0.36 -0.19332 0.54 -0.31998 s0.37666 -0.27 0.59 -0.43 c0.08 -0.06666 0.16334 -0.12332 0.25 -0.16998 s0.20332 -0.07 0.34998 -0.07 c0.25334 0 0.46668 0.08666 0.64002 0.26 s0.26 0.38 0.26 0.62 c0 0.14666 -0.02666 0.26666 -0.08 0.36 s-0.11334 0.18 -0.18 0.26 c-0.21334 0.24 -0.46334 0.45666 -0.75 0.65 s-0.59332 0.35334 -0.91998 0.48 s-0.66 0.22332 -1 0.28998 s-0.66334 0.1 -0.97 0.1 c-0.70666 0 -1.3733 -0.13666 -2 -0.41 s-1.1733 -0.64334 -1.64 -1.11 s-0.83666 -1.01 -1.11 -1.63 s-0.41 -1.2833 -0.41 -1.99 s0.13666 -1.3733 0.41 -2 s0.64334 -1.1733 1.11 -1.64 s1.0133 -0.83666 1.64 -1.11 s1.2933 -0.41 2 -0.41 c0.68 0 1.32 0.11334 1.92 0.34 s1.1333 0.55 1.6 0.97 s0.84 0.92 1.12 1.5 s0.44 1.2167 0.48 1.91 c0.01334 0.26666 -0.07 0.48332 -0.25 0.64998 s-0.39 0.25 -0.63 0.25 z M42.54 11.78 c-0.69334 0 -1.32 0.19 -1.88 0.57 s-0.97334 0.87666 -1.24 1.49 l6.22 0 c-0.25334 -0.62666 -0.66334 -1.1267 -1.23 -1.5 s-1.19 -0.56 -1.87 -0.56 z M57.379999999999995 13.02 c-0.13334 0 -0.24668 -0.0233 -0.34002 -0.069962 s-0.18 -0.10332 -0.26 -0.16998 c-0.38666 -0.33334 -0.76 -0.58334 -1.12 -0.75 s-0.78666 -0.25 -1.28 -0.25 c-0.46666 0 -0.90332 0.09 -1.31 0.27 s-0.76332 0.42334 -1.07 0.73 s-0.55 0.66332 -0.73 1.07 s-0.27 0.84332 -0.27 1.31 s0.09 0.90332 0.27 1.31 s0.42334 0.76332 0.73 1.07 s0.66332 0.54666 1.07 0.72 s0.84332 0.26 1.31 0.26 c0.49334 0 0.92 -0.08334 1.28 -0.25 s0.73334 -0.41666 1.12 -0.75 c0.08 -0.06666 0.16666 -0.12332 0.26 -0.16998 s0.20668 -0.07 0.34002 -0.07 c0.25334 0 0.46668 0.08666 0.64002 0.26 s0.26 0.38 0.26 0.62 c0 0.13334 -0.02666 0.25 -0.08 0.35 s-0.11334 0.19 -0.18 0.27 c-0.22666 0.24 -0.48332 0.45666 -0.76998 0.65 s-0.59 0.35334 -0.91 0.48 s-0.64666 0.22332 -0.98 0.28998 s-0.66 0.1 -0.98 0.1 c-0.70666 0 -1.3733 -0.13666 -2 -0.41 s-1.1733 -0.64334 -1.64 -1.11 s-0.83666 -1.01 -1.11 -1.63 s-0.41 -1.2833 -0.41 -1.99 s0.13666 -1.3733 0.41 -2 s0.64334 -1.1733 1.11 -1.64 s1.0133 -0.83666 1.64 -1.11 s1.2933 -0.41 2 -0.41 c0.32 0 0.64666 0.03334 0.98 0.1 s0.66 0.16332 0.98 0.28998 s0.62334 0.28666 0.91 0.48 s0.54332 0.41 0.76998 0.65 c0.06666 0.08 0.12666 0.17 0.18 0.27 s0.08 0.21666 0.08 0.35 c0 0.24 -0.08666 0.44666 -0.26 0.62 s-0.38668 0.26 -0.64002 0.26 z M65.19999999999999 11.78 l-1.62 0 l0 7.64 c0 0.24 -0.08666 0.44666 -0.26 0.62 s-0.38668 0.26 -0.64002 0.26 c-0.24 0 -0.44666 -0.08666 -0.62 -0.26 s-0.26 -0.38 -0.26 -0.62 l0 -7.64 l-1.64 0 c-0.24 0 -0.44666 -0.08666 -0.62 -0.26 s-0.26 -0.38 -0.26 -0.62 c0 -0.25334 0.08666 -0.46668 0.26 -0.64002 s0.38 -0.26 0.62 -0.26 l1.64 0 l0 -2.94 c0 -0.25334 0.08666 -0.46334 0.26 -0.63 s0.38 -0.25 0.62 -0.25 c0.25334 0 0.46668 0.08334 0.64002 0.25 s0.26 0.37666 0.26 0.63 l0 2.94 l1.62 0 c0.25334 0 0.46668 0.08666 0.64002 0.26 s0.26 0.38668 0.26 0.64002 c0 0.24 -0.08666 0.44666 -0.26 0.62 s-0.38668 0.26 -0.64002 0.26 z"/></g><g id="SvgjsG1084" featureKey="dDj50M-0" transform="matrix(0.6286935441939827,0,0,0.6286935441939827,39.572488797654934,175.65535203567228)" fill="#fff"><path d="M8.14 18.46 c1.78 0 3.44 -0.82 4.54 -2.26 l1.4 1.04 c-1.42 1.9 -3.6 2.98 -5.94 2.98 c-4.12 0 -7.46 -3.34 -7.46 -7.46 c0 -4.1 3.34 -7.44 7.46 -7.44 c2.36 0 4.54 1.1 5.96 3 l-1.42 1.04 c-1.08 -1.46 -2.74 -2.28 -4.54 -2.28 c-3.16 0 -5.7 2.54 -5.7 5.68 c0 3.16 2.54 5.7 5.7 5.7 z M30.088 5.32 c4.1 0 7.46 3.34 7.46 7.46 c0 4.1 -3.36 7.42 -7.46 7.42 s-7.44 -3.32 -7.44 -7.42 c0 -4.12 3.34 -7.46 7.44 -7.46 z M30.088 18.44 c3.12 0 5.64 -2.56 5.64 -5.66 c0 -3.12 -2.52 -5.7 -5.64 -5.7 s-5.64 2.58 -5.64 5.7 c0 3.1 2.52 5.66 5.64 5.66 z M56.376 20 l-7.62 -11.26 l0 11.26 l-1.8 0 l0 -14.24 l1.96 0 l7.6 11.26 l0 -11.26 l1.8 0 l0 14.24 l-1.94 0 z M73.544 20.14 c-0.48 0 -0.96 -0.06 -1.44 -0.16 c-1.48 -0.3 -2.94 -1.04 -4.24 -2.16 l1.18 -1.34 c1.06 0.92 2.24 1.54 3.42 1.78 c1 0.22 1.98 0.14 2.76 -0.22 c0.52 -0.24 1.42 -0.84 1.42 -2.06 c0 -1.5 -1.6 -2.04 -3.16 -2.34 c-0.14 -0.02 -2.38 -0.48 -3.28 -1 c-1.2 -0.72 -1.84 -1.8 -1.84 -3.12 c0 -0.74 0.24 -1.44 0.66 -2.06 c0.42 -0.56 1 -1.02 1.68 -1.34 c1 -0.48 2.18 -0.62 3.38 -0.42 c1.3 0.22 2.62 0.84 3.78 1.8 l-1.14 1.38 c-2.06 -1.7 -4.06 -1.74 -5.26 -1.18 c-0.82 0.38 -1.3 1.08 -1.3 1.8 c0 1.36 1.16 1.88 3 2.28 c0.76 0.18 2.34 0.44 3.28 0.98 c1.3 0.72 1.98 1.84 1.98 3.22 c0 0.82 -0.22 1.58 -0.68 2.24 c-0.42 0.6 -1.06 1.06 -1.78 1.42 c-0.76 0.38 -1.54 0.5 -2.42 0.5 z M96.852 5.76 l1.8 0 l0 9.02 c0 3 -2.44 5.42 -5.44 5.42 c-2.98 0 -5.42 -2.42 -5.42 -5.42 l0 -9.02 l1.78 0 l0 9.02 c0 2.02 1.64 3.68 3.64 3.68 c2.02 0 3.64 -1.66 3.64 -3.68 l0 -9.02 z M108.67999999999999 20 l0 -14.24 l1.8 0 l0 12.5 l7.8 0 l0 1.74 l-9.6 0 z M128.568 20 l0 -12.48 l-3.76 0 l0 -1.76 l9.32 0 l0 1.76 l-3.76 0 l0 12.48 l-1.8 0 z M144.39600000000002 20 l0 -14.24 l1.8 0 l0 14.24 l-1.8 0 z M166.54399999999998 20 l-7.62 -11.26 l0 11.26 l-1.8 0 l0 -14.24 l1.96 0 l7.6 11.26 l0 -11.26 l1.8 0 l0 14.24 l-1.94 0 z M185.63199999999998 10.84 l5.92 0 l0 6.3 c-1.42 1.9 -3.66 3.08 -6.02 3.08 c-4.1 0 -7.44 -3.34 -7.44 -7.46 c0 -4.1 3.34 -7.44 7.44 -7.44 c2.02 0 3.9 0.8 5.28 2.2 l-1.32 1.16 c-1.04 -1.04 -2.46 -1.6 -3.96 -1.6 c-3.14 0 -5.68 2.54 -5.68 5.68 c0 3.16 2.54 5.7 5.68 5.7 c1.66 0 3.18 -0.7 4.28 -1.92 l0 -3.94 l-4.18 0 l0 -1.76 z"/></g>
			</g>
		</svg>
	