<?xml version="1.0" encoding="utf-8"?>
<!-- Generator: Adobe Illustrator 23.0.2, SVG Export Plug-In . SVG Version: 6.00 Build 0)  -->
<svg version="1.1" id="Layer_1" xmlns="http://www.w3.org/2000/svg" xmlns:xlink="http://www.w3.org/1999/xlink" x="0px" y="0px"
	 viewBox="0 0 322.4 121.6" style="enable-background:new 0 0 322.4 121.6;" xml:space="preserve">
<style type="text/css">
	.st0{fill:#FFFFFF;}
	.st1{fill:#527F3A;}
	.st2{fill-rule:evenodd;clip-rule:evenodd;fill:#527F3A;}
	.st3{fill-rule:evenodd;clip-rule:evenodd;fill:#1E87C9;}
	.st4{fill-rule:evenodd;clip-rule:evenodd;fill:#FFFFFF;}
</style>
<g>
	<path class="st0" d="M0.6,71.5c0.4,30.9,25.7,50.3,48.5,49.6c23.3-0.6,50.6-18.7,51-49.2V0.6H0.6V71.5L0.6,71.5z"/>
	<path class="st1" d="M47.9,121.6L47.9,121.6c-22.7,0-47.5-19.2-47.9-50.2V0h100.6v71.8c-0.4,29.9-27,49.1-51.5,49.8
		C48.7,121.6,48.3,121.6,47.9,121.6z M1.1,1.1v70.4c0.4,30.3,24.5,49.1,46.7,49.1h0c0.4,0,0.8,0,1.2,0c24-0.7,50.1-19.5,50.4-48.7
		V1.1H1.1z"/>
</g>
<path class="st2" d="M65.8,55.4c-23.1-26.9-51-5.3-51.5,14.1c-0.6,23.7,19,37.3,34.8,36.6c16.4-0.6,36.2-12.2,36.7-34.9h-0.5
	C82.2,85.9,67.9,88,60.5,82.8C51.8,76.7,51.2,60.2,65.8,55.4L65.8,55.4z"/>
<path class="st3" d="M14.6,38.9V15H86v54.6h-0.6C85.9,39.9,48.7,10.6,14.6,38.9L14.6,38.9z"/>
<path class="st4" d="M126.3,102.2l-0.9,2.9c-0.2,0.7-0.4,1.3-0.4,1.5c0,0.5,0.5,0.6,1.4,0.7c0.7,0,0.9,0.1,0.9,0.4
	c0,0.4-0.4,0.4-0.5,0.4c-0.4,0-2-0.2-3.9-0.2c-1.9,0-3.1,0.2-3.5,0.2c-0.2,0-0.4-0.1-0.4-0.3c0-0.4,0.4-0.5,1.6-0.6
	c0.7-0.1,1.1-0.2,1.5-1.6l1-3.4H126.3L126.3,102.2z M138.4,102.2c-0.2,0-0.3,0-0.4,0.1l-3.3,0.6c-0.1,0.5-0.1,0.7-0.1,0.9
	c0,2.7,1.8,3,2.3,3c0.5,0,1.9-0.1,3.6-1.8c0.6-0.6,0.7-0.7,0.8-0.7c0.2,0,0.2,0.1,0.2,0.3c0,0.5-2.8,3.8-5.8,3.8
	c-2.1,0-4.2-1.5-4.2-4.6c0-0.5,0.1-1,0.1-1.5L138.4,102.2L138.4,102.2z M155.4,102.2l-0.7,2.3c-0.1,0.3-0.4,1.3-0.4,1.8
	c0,0.8,0.5,0.9,1.4,0.9c1,0.1,1.1,0.2,1.1,0.5c0,0.4-0.3,0.4-0.4,0.4c-0.1,0-2.1-0.2-4-0.2c-1.8,0-3.3,0.2-3.6,0.2
	c-0.4,0-0.5-0.1-0.5-0.3c0-0.4,0.4-0.4,0.9-0.5c1.4-0.1,1.6-0.2,2.1-2l0.9-3.1H155.4L155.4,102.2z M168.3,102.2
	c-0.4,1.1-0.7,2.1-0.7,2.8c0,0.4,0,1.4,1.1,1.4c1.1,0,3.2-2,4.9-4.2l0.8,0c-0.1,0.1-0.2,0.3-0.3,0.4c-2,2.6-4.4,5.8-7,5.8
	c-1.6,0-2.3-1.3-2.3-2.9c0-1.1,0.3-2.2,0.7-3.3L168.3,102.2L168.3,102.2z M177.2,102.2c-0.6,1.8-1.1,3.4-1.1,3.9
	c0,0.2,0.1,0.5,0.3,0.5c0.7,0,2.2-2,2.5-2.6c0.1-0.2,0.2-0.3,0.3-0.3c0.1,0,0.3,0.1,0.3,0.3c0,0.7-2.6,4.3-5.1,4.3
	c-0.3,0-1.1,0-1.1-1.2c0-0.7,0.5-2.3,0.8-3l0.6-1.7c0-0.1,0.1-0.2,0.1-0.3L177.2,102.2L177.2,102.2z M185.2,102.2l-0.9,2.6
	c-0.3,0.8-0.4,1.4-0.4,1.5c0,0.8,0.8,1.4,1.8,1.4c2.6,0,4.5-2.8,5.4-5.4l2.8,0c-1.1,3-3.6,6.1-7.8,6.1c-1.6,0-2.3-0.5-2.7-0.8
	l-1.2,3.9c-0.1,0.4-0.2,0.6-0.2,0.8c0,0.6,0.5,0.7,1,0.8c1,0.1,1.3,0.1,1.3,0.5c0,0.4-0.4,0.4-0.6,0.4c-0.1,0-1.8-0.2-3.7-0.2
	c-2.3,0-3.3,0.2-3.5,0.2c-0.3,0-0.3-0.2-0.3-0.3c0-0.5,0.6-0.5,1.2-0.6c1.3-0.1,1.7-0.6,2.1-2l2.9-8.8H185.2L185.2,102.2z
	 M199.3,102.2c-0.4,1.1-0.7,2.1-0.7,2.8c0,0.4,0,1.4,1.1,1.4c1.1,0,3.2-2,4.9-4.2l0.8,0c-0.1,0.1-0.2,0.3-0.3,0.4
	c-2,2.6-4.4,5.8-7,5.8c-1.6,0-2.3-1.3-2.3-2.9c0-1.1,0.3-2.2,0.7-3.3L199.3,102.2L199.3,102.2z M208.2,102.2
	c-0.6,1.8-1.1,3.4-1.1,3.9c0,0.2,0.1,0.5,0.3,0.5c0.7,0,2.2-2,2.5-2.6c0.1-0.2,0.2-0.3,0.3-0.3c0.1,0,0.3,0.1,0.3,0.3
	c0,0.7-2.6,4.3-5.1,4.3c-0.3,0-1.1,0-1.1-1.2c0-0.7,0.5-2.3,0.8-3l0.6-1.7c0-0.1,0.1-0.2,0.1-0.3L208.2,102.2L208.2,102.2z
	 M221.5,102.2l-1.8,2.5c-0.7,1-0.8,1.2-0.8,1.5c0,0.8,0.8,0.9,1.6,1c0.7,0.1,1,0.1,1,0.5c0,0.1-0.1,0.4-0.6,0.4
	c-0.4,0-2.2-0.2-2.9-0.2c-1.9,0-2.4,0.2-2.8,0.2c-0.2,0-0.5-0.1-0.5-0.4c0-0.3,0.2-0.4,0.5-0.4c1.3-0.2,1.3-0.2,3.6-3.2l1.4-1.9
	H221.5L221.5,102.2z M230.8,102.2l0.1,2.4c0.1,2.6,0.3,2.7,1.1,2.7c0.8,0,0.9,0.2,0.9,0.4c0,0.3-0.3,0.4-0.5,0.4
	c-0.4,0-0.9-0.2-3.5-0.2c-2.4,0-2.6,0.2-3.1,0.2c-0.2,0-0.4-0.1-0.4-0.4c0-0.3,0.3-0.4,0.7-0.5c1.4-0.2,1.6-0.4,1.6-1.4l-0.2-3.6
	H230.8L230.8,102.2z M238.1,102.2c-0.1,0.4-0.3,0.9-0.5,1.5c-0.2,0.5-0.6,1.8-0.6,2.2c0,0.4,0.2,0.5,0.3,0.5c0.4,0,1.9-1.1,2.7-2.4
	c0.1-0.2,0.2-0.3,0.4-0.3c0.2,0,0.3,0.2,0.3,0.3c0,0.8-3,4.3-5.3,4.3c-0.6,0-1.1-0.4-1.1-1.6c0-0.8,0.2-1.7,0.4-2.3
	c0.2-0.6,0.4-1.4,0.6-2.2L238.1,102.2L238.1,102.2z M246,102.2c-0.4,1.1-0.7,2.1-0.7,2.8c0,0.4,0,1.4,1.1,1.4c1.1,0,3.2-2,4.9-4.2
	l0.7,0c-0.1,0.1-0.2,0.3-0.3,0.4c-2,2.6-4.4,5.8-7,5.8c-1.6,0-2.3-1.3-2.3-2.9c0-1.1,0.3-2.2,0.7-3.3L246,102.2L246,102.2z
	 M254.8,102.2c-0.6,1.8-1.1,3.4-1.1,3.9c0,0.2,0.1,0.5,0.3,0.5c0.7,0,2.2-2,2.5-2.6c0.1-0.2,0.2-0.3,0.3-0.3c0.1,0,0.3,0.1,0.3,0.3
	c0,0.7-2.6,4.3-5.1,4.3c-0.3,0-1.1,0-1.1-1.2c0-0.7,0.5-2.3,0.8-3l0.6-1.7c0-0.1,0-0.2,0.1-0.3L254.8,102.2L254.8,102.2z
	 M263.6,102.2c-0.6,1.6-1.2,3.1-1.2,3.6c0,0.7,0.4,1,1,1c1.3,0,2.8-1.4,3.7-2.8c0.3-0.5,0.7-1,1.1-1.8h3.1c-0.5,1.5-0.8,2.9-0.8,3.4
	c0,0.3,0,1.3,1.2,1.3c1.7,0,4-2.4,5.2-4.7l0.8,0c-1.8,3.1-4.6,6.1-7.6,6.1c-1.5,0-2.2-1-2.2-2c0-0.7,0.2-1.5,0.8-3.5h-0.1
	c-0.9,1.5-3.4,5.5-6.3,5.5c-1.6,0-2.5-1.1-2.5-2.5c0-0.9,0.5-2.3,1-3.7L263.6,102.2L263.6,102.2z M285.2,102.2
	c-1,1.6-1.9,3.3-2.5,4.8c-0.3,0.9-0.4,1-1.6,1c-0.9,0-1.2,0-1.2-0.5c0-0.3,0.8-2.6,1.7-5.3L285.2,102.2L285.2,102.2z M294.1,102.2
	c-1.3,3.4-4.3,6.1-7.7,6.1c-0.9,0-1.6-0.4-1.6-1.1c0-0.6,0.8-1.2,1.3-1.2c1.3,0,1.1,1.5,2,1.5c1,0,2.1-2.7,2.9-5.3H294.1
	L294.1,102.2z M299.6,102.2c-0.4,1.1-0.7,2.1-0.7,2.8c0,0.4,0,1.4,1.1,1.4c1.1,0,3.2-2,4.9-4.2l0.8,0c-0.1,0.1-0.2,0.3-0.3,0.4
	c-2,2.6-4.5,5.8-7,5.8c-1.6,0-2.3-1.3-2.3-2.9c0-1.1,0.3-2.2,0.7-3.3L299.6,102.2L299.6,102.2z M308.4,102.2
	c-0.6,1.8-1.1,3.4-1.1,3.9c0,0.2,0.1,0.5,0.3,0.5c0.7,0,2.2-2,2.5-2.6c0.1-0.2,0.2-0.3,0.3-0.3c0.1,0,0.3,0.1,0.3,0.3
	c0,0.7-2.6,4.3-5.1,4.3c-0.3,0-1.1,0-1.1-1.2c0-0.7,0.5-2.3,0.8-3l0.6-1.7c0-0.1,0.1-0.2,0.1-0.3L308.4,102.2L308.4,102.2z
	 M317,102.2c-0.7,1.7-1.3,3.3-1.3,4c0,0.2,0.1,0.3,0.3,0.3c0.7,0,2.3-2,2.6-2.4c0.1-0.1,0.2-0.2,0.3-0.2c0.1,0,0.3,0.1,0.3,0.3
	c0,0.7-3.1,4.2-5.2,4.2c-0.9,0-1.2-0.5-1.2-1.3c0-1,0.6-3,1.4-4.9L317,102.2L317,102.2z"/>
<path class="st4" d="M122.4,90.5c0.1,0.2,0.3,0.2,1,0.2h8.1c1.7,0,2.5,0,2.9-0.2l1.2,0c-0.4,1.1-1.1,3-1.2,3.5
	c-0.1,0.6-0.3,0.6-0.5,0.6c-0.4,0-0.4-0.3-0.4-0.4c0-0.2,0.3-1.5,0.3-1.8c0-0.8-0.3-0.8-3.7-0.8c-0.5,0-0.5,0.1-0.8,1.1l-2.8,9.5
	h-3.1l2.9-9.8c0.1-0.3,0.1-0.4,0.1-0.5c0-0.3-0.1-0.3-1.3-0.3c-2,0-2.8,0.2-4.2,2.5c-0.2,0.4-0.4,0.5-0.6,0.5
	c-0.1,0-0.4-0.1-0.4-0.3c0-0.2,1-2.8,1.4-3.8H122.4L122.4,90.5z M154.2,90.5c0.4,0.1,0.9,0.2,2.5,0.2c1.9,0,2.9-0.1,4.1-0.2l1.8,0
	c3.8,0.3,3.8,3.4,3.8,3.7c0,2.3-1.7,4.5-3.8,5.3c-0.9,0.4-1.9,0.8-6.7,0.8l-0.6,1.9h-3.1l2.7-9.1c0.1-0.3,0.2-0.7,0.2-1.1
	c0-0.6-0.8-0.7-1.2-0.7c-0.6,0-0.7-0.2-0.7-0.4c0-0.2,0.2-0.3,0.3-0.4H154.2L154.2,90.5z M230.1,90.5c0.1,0.3,0.1,1,0.1,1.2
	l0.6,10.5h-3.2l0-0.3h-5.8l-0.2,0.3h-1.2l5.2-6.9c0.6-0.8,2.8-3.7,3.9-4.8L230.1,90.5L230.1,90.5z M288.1,90.5
	c-0.3,1.1-1.3,4-1.6,5.1l-1.9,6.1c2.7-3.7,5.2-6.5,7.6-6.5c0.9,0,2.6,0.6,2.6,3.6c0,1.1-0.2,2.3-0.7,3.3l-3,0
	c0.5-1.6,0.8-3.1,0.8-3.9c0-1.4-0.7-1.4-1.1-1.4c-1.3,0-3.6,2.4-5.5,5.4l-3.6,0c1.3-4.1,3-9.2,3-10.1c0-0.6-0.4-0.6-1.2-0.6
	c-0.4,0-0.5-0.1-0.5-0.3c0-0.5,0.6-0.5,0.8-0.5l0.6,0c0.5,0,1.2-0.1,1.8-0.2L288.1,90.5L288.1,90.5z M131.8,102.2
	c0.9-4.5,5.4-7,8.1-7c1.6,0,3.5,1,3.5,2.9c0,2.7-3.5,3.7-4.9,4L131.8,102.2L131.8,102.2z M165.5,102.2c1.7-3.8,6-6.7,9-6.7
	c0.8,0,1.4,0.2,1.7,0.4c0,0,0.4,0.2,0.4,0.2c0.1,0,0.2-0.3,0.2-0.4c0.1-0.4,0.3-0.5,1.1-0.5l0.9,0c0.2,0,0.6,0,0.6,0.3
	c0,0.1-1.3,3.7-2.2,6.7l-2.6,0c0.1-0.2,0.1-0.4,0.1-0.4c-0.1,0.1-0.2,0.3-0.4,0.5l-0.8,0c1.4-1.9,2.6-3.8,2.6-4.8
	c0-1.1-1.2-1.2-1.6-1.2c-2.7,0-5.1,3.3-6.3,6L165.5,102.2L165.5,102.2z M182.7,102.2l1.9-5.8c-0.7,0.1-1.7,0.3-2,0.4
	c-0.1,0-0.2,0-0.2,0c-0.2,0-0.3-0.1-0.3-0.3c0-0.5,0.3-0.5,2.7-0.9l0.2-0.6c0.4-1.4,0.6-2.1,0.8-2.3c0.1-0.1,0.2-0.2,2-0.2
	c0.4,0,0.4,0.1,0.4,0.3c0,0.4-0.8,2.3-0.8,2.4c0.7-0.1,1.2-0.2,2.6-0.2c1,0,4.6,0,4.6,3.8c0,0.9-0.2,2.1-0.7,3.3l-2.8,0
	c0.5-1.4,0.8-2.8,0.8-3.6c0-2.4-1.6-2.7-3-2.7c-0.7,0-1.2,0.1-1.7,0.1l-2.1,6.2H182.7L182.7,102.2z M196.4,102.2
	c1.7-3.8,6-6.7,9-6.7c0.8,0,1.4,0.2,1.7,0.4c0,0,0.4,0.2,0.5,0.2c0.1,0,0.2-0.3,0.2-0.4c0.1-0.4,0.3-0.5,1.1-0.5l0.9,0
	c0.2,0,0.6,0,0.6,0.3c0,0.1-1.3,3.7-2.2,6.7l-2.6,0c0.1-0.2,0.1-0.4,0.1-0.4c-0.1,0.1-0.2,0.3-0.4,0.5l-0.8,0
	c1.4-1.9,2.6-3.8,2.6-4.8c0-1.1-1.2-1.2-1.6-1.2c-2.7,0-5.1,3.3-6.3,6L196.4,102.2L196.4,102.2z M235.4,102.2
	c0.5-1.8,1.3-3.9,1.9-5.7h-1.8c-0.3,0-0.6,0-0.6-0.2c0-0.7,0.5-0.7,1.3-0.7h1.3c0.2-0.5,0.9-3.1,1.3-3.3c0.3-0.1,1.4-0.1,1.8-0.1
	c0.4,0,0.6,0,0.6,0.3c0,0.2-0.4,1.4-0.5,1.7l-0.4,1c0,0.1-0.1,0.3-0.1,0.4h2.9c0.2,0,0.2,0.2,0.2,0.3c0,0.5-0.5,0.6-0.8,0.6h-2.6
	c-0.8,2.5-0.9,2.9-1.8,5.7L235.4,102.2L235.4,102.2z M243.1,102.2c1.7-3.8,6-6.7,9-6.7c0.8,0,1.4,0.2,1.7,0.4c0,0,0.4,0.2,0.4,0.2
	c0.1,0,0.2-0.3,0.3-0.4c0.1-0.4,0.3-0.5,1.1-0.5l0.9,0c0.2,0,0.6,0,0.6,0.3c0,0.1-1.3,3.7-2.2,6.7l-2.6,0c0.1-0.2,0.1-0.4,0.1-0.4
	c-0.1,0.1-0.2,0.3-0.4,0.5l-0.7,0c1.4-1.9,2.6-3.8,2.6-4.8c0-1.1-1.2-1.2-1.6-1.2c-2.7,0-5.1,3.3-6.3,6L243.1,102.2L243.1,102.2z
	 M260.9,102.2c0.2-0.6,0.5-1.2,0.7-1.7c0.8-1.9,1.2-2.9,1.2-3.4c0-0.3-0.2-0.4-0.3-0.4c-0.8,0-2.5,2-2.9,2.5
	c-0.1,0.1-0.3,0.3-0.5,0.3c-0.2,0-0.2-0.1-0.2-0.3c0-0.7,2.9-3.9,5.4-3.9c0.2,0,1.3,0,1.3,1.1c0,0.9-1.1,3.6-2,5.9L260.9,102.2
	L260.9,102.2z M268.2,102.2c0.6-1.2,1.4-3,2.5-6.3c0.1-0.4,0.2-0.6,1.4-0.6c0.3,0,1,0,1.2,0.1c0.1,0.1,0.1,0.2,0.1,0.2
	c0,0-1.3,3.6-2.2,6.5L268.2,102.2L268.2,102.2z M276.9,102.2c0.5-1,0.8-1.9,0.8-2.7c0-0.7-0.2-1-0.4-1.5c-0.3-0.5-0.4-0.9-0.4-1.3
	c0-1.6,1.1-1.7,1.4-1.7c0.4,0,1.2,0.3,1.2,1.9c0,1.3-0.7,3.3-1.8,5.3L276.9,102.2L276.9,102.2z M296.7,102.2c1.7-3.8,6-6.7,9-6.7
	c0.8,0,1.4,0.2,1.7,0.4c0,0,0.4,0.2,0.4,0.2c0.1,0,0.2-0.3,0.2-0.4c0.1-0.4,0.3-0.5,1.1-0.5l0.9,0c0.2,0,0.6,0,0.6,0.3
	c0,0.1-1.3,3.7-2.2,6.7l-2.6,0c0.1-0.2,0.1-0.4,0.1-0.4c-0.1,0.1-0.2,0.3-0.4,0.5l-0.8,0c1.4-1.9,2.6-3.8,2.6-4.8
	c0-1.1-1.2-1.2-1.6-1.2c-2.7,0-5.1,3.3-6.3,6L296.7,102.2L296.7,102.2z M314.2,102.2c0.5-1.4,1.1-2.8,1.5-3.7c0.3-0.6,0.4-1,0.4-1.3
	c0-0.1,0-0.3-0.2-0.3c-0.6,0-2.9,2.3-2.9,2.3c-0.1,0-0.3-0.1-0.3-0.3c0-0.5,2.9-3.7,5.4-3.7c0.8,0,0.9,0.7,0.9,1.1
	c0,0.9-1.1,3.5-2,5.8H314.2L314.2,102.2z M222.4,100.9h5.1l-0.2-5.6c0-0.6,0-0.6-0.1-0.6c-0.1,0-1.6,2.1-1.9,2.4L222.4,100.9
	L222.4,100.9z M156.2,99.5c1.3-0.1,2.9-0.1,4.3-0.9c1.8-1.1,2.8-2.8,2.8-4.5c0-2.8-2.4-2.8-3.6-2.8c-1.1,0-1.1,0-1.5,1.2L156.2,99.5
	L156.2,99.5z M140.8,97.5c0-0.2,0-1.6-1.3-1.6c-2.1,0-4,3.1-4.6,6.3C136.7,101.9,140.8,101.2,140.8,97.5L140.8,97.5z M318.8,94.1
	c-0.9,0-1.2-0.9-1.2-1.4c0-0.9,0.8-2.1,1.8-2.1c1.1,0,1.1,1.2,1.1,1.4C320.6,93,319.8,94.1,318.8,94.1L318.8,94.1z"/>
<path class="st4" d="M121.2,90.5c0.1-0.2,0.1-0.3,0.1-0.4c0.2-0.4,0.3-0.7,0.7-0.7c0.1,0,0.4,0,0.4,0.4c0,0.1-0.1,0.4-0.1,0.5
	c0,0.1,0,0.2,0,0.2L121.2,90.5L121.2,90.5z M134.3,90.5c0.2-0.1,0.4-0.3,0.5-0.5c0.2-0.4,0.4-0.4,0.5-0.4c0.2,0,0.3,0.1,0.3,0.3
	c0,0.1-0.1,0.3-0.2,0.7L134.3,90.5L134.3,90.5z M153.6,90.5c0.1,0,0.1,0,0.2,0c0.1,0,0.3,0,0.4,0L153.6,90.5L153.6,90.5z
	 M160.8,90.5c0.4,0,0.8,0,1.2,0c0.2,0,0.4,0,0.6,0H160.8L160.8,90.5z M229.3,90.5c0.2-0.2,0.4-0.3,0.5-0.3c0.2,0,0.3,0.1,0.3,0.2
	c0,0,0,0,0,0.1H229.3L229.3,90.5z M286.1,90.5c0.5-0.1,0.9-0.2,1.1-0.4c0.3-0.1,0.6-0.3,0.7-0.3c0.3,0,0.3,0.1,0.3,0.3
	c0,0,0,0.2-0.1,0.4L286.1,90.5L286.1,90.5z"/>
<path class="st4" d="M122.3,64.8c1,4.1,3.8,7.9,8.3,7.9c3.4,0,5-2.1,6.6-4.9c0.1-0.2,0.4-0.7,0.7-0.7c0.6,0,0.6,0.3,0.6,0.6
	l-0.3,3.2c0,0.5-0.1,0.9-0.9,1.3c-0.6,0.4-3.1,1.5-6.8,1.5c-7.5,0-11.6-4.6-13-8.8L122.3,64.8L122.3,64.8z M143.9,64.8
	c0.2,4.3,2.4,7.9,5.2,7.9c2.7,0,5-3.5,5-7.8c0,0,0-0.1,0-0.1l3.9,0c-0.1,4.8-3.7,8.8-8.8,8.8c-5.7,0-9.2-4.5-9.2-8.7
	c0,0,0-0.1,0-0.1L143.9,64.8L143.9,64.8z M165.1,64.8v4.7c0,2.1,0,2.5,1.6,2.7c0.9,0.1,1.1,0.3,1.1,0.6c0,0.4-0.4,0.4-0.6,0.4
	c-0.6,0-3.2-0.2-3.9-0.2c-0.6,0-3.2,0.2-3.8,0.2c-0.3,0-0.7,0-0.7-0.5c0-0.3,0.3-0.5,1.1-0.6c1.6-0.2,1.6-0.6,1.6-2.7v-4.8H165.1
	L165.1,64.8z M176.2,64.8v4.7c0,2.1,0,2.5,1.6,2.7c0.9,0.1,1.1,0.3,1.1,0.6c0,0.4-0.4,0.4-0.6,0.4c-0.6,0-3.3-0.2-3.9-0.2
	c-0.6,0-3.3,0.2-3.9,0.2c-0.3,0-0.6,0-0.6-0.5c0-0.3,0.3-0.5,1.1-0.6c1.6-0.2,1.6-0.6,1.6-2.7v-4.8H176.2L176.2,64.8z M191.8,64.8
	c0.6,0.7,1,1.6,1,2.8c0,2.8-2.3,6-7.2,6c-2.2,0-4.5-0.9-4.7-1c-0.4-0.2-0.4-0.5-0.4-1.4l0.1-2.7c0-0.1,0-0.7,0.5-0.7
	c0.4,0,0.6,0.3,0.8,1c0.2,0.7,1.3,3.9,4.3,3.9c1.7,0,3.6-1.1,3.6-3c0-2-1.7-2.8-4.3-3.8c-0.8-0.3-1.6-0.6-2.3-1L191.8,64.8
	L191.8,64.8z M199,64.8c0.3,3.8,2.9,6.7,6.5,6.7c1.7,0,3.2-0.6,4.1-1.5c0.6-0.6,0.6-0.6,0.8-0.6c0.3,0,0.3,0.2,0.3,0.3
	c0,0.6-2.6,3.8-7.3,3.8c-4.9,0-8.6-3.2-8.6-8.4c0-0.1,0-0.3,0-0.4L199,64.8L199,64.8z M218.8,64.8v4.8c0,1.5,0,2.5,1.9,2.6
	c0.8,0,1.3,0.1,1.3,0.6c0,0.5-0.5,0.5-0.8,0.5c-0.6,0-3.6-0.2-4.3-0.2c-0.6,0-3.3,0.2-3.9,0.2c-0.3,0-0.6,0-0.6-0.5
	c0-0.3,0.3-0.5,1.1-0.6c1.6-0.2,1.6-0.6,1.6-2.7v-4.8H218.8L218.8,64.8z M235.7,64.8l1.6,3.8l1.7-3.8h1.3l-3.8,8.4
	c-0.2,0.5-0.4,0.7-0.6,0.7c-0.3,0-0.5-0.2-0.7-0.6l-3.5-8.5H235.7L235.7,64.8z M253.4,64.8c-0.5,0.2-1.1,0.5-1.6,0.7
	c-2.3,1.1-2.3,2.5-2.3,3.3c0,1.8,0.9,2.4,1.7,2.4c1.7,0,3.1-1.3,3.1-3.9v-2.2c0-0.2-0.1-0.3-0.1-0.3l3.7,0v4.4
	c0,1.1,0.1,2.1,1.2,2.1c0.4,0,0.8-0.2,1.1-0.4c0.4-0.3,0.4-0.4,0.6-0.4c0.2,0,0.3,0.2,0.3,0.3c0,0.9-2.3,2.6-3.9,2.6
	c-1.4,0-2.2-1.1-2.6-2c-0.3-0.7-0.4-0.7-0.5-0.7c-0.1,0-0.3,0.2-0.3,0.2c-1.6,1.3-3.6,2.6-5.2,2.6c-2.7,0-2.9-2.6-2.9-3.1
	c0-2.3,1.5-3.8,5.5-5.7L253.4,64.8L253.4,64.8z M267.5,64.8v3.3c0,1.7,0.2,3.4,2.2,3.4c0.6,0,1.1-0.1,2.4-0.9
	c0.1-0.1,0.3-0.2,0.4-0.2c0.2,0,0.3,0.2,0.3,0.3c0,0.6-2.4,2.8-5.1,2.8c-1.9,0-3.7-1.3-3.7-4v-4.7H267.5L267.5,64.8z M279.8,64.8
	v4.8c0,2,0,2.5,1.6,2.7c0.9,0.1,1.1,0.3,1.1,0.6c0,0.4-0.4,0.4-0.6,0.4c-0.6,0-2.2-0.2-3.9-0.2c-1.6,0-3.3,0.2-3.9,0.2
	c-0.3,0-0.6,0-0.6-0.5c0-0.3,0.3-0.5,1.1-0.6c1.6-0.2,1.6-0.6,1.6-2.7v-4.8H279.8L279.8,64.8z M287,64.8c0.2,4.3,2.4,7.9,5.2,7.9
	c2.7,0,5-3.5,5-7.8c0,0,0-0.1,0-0.1l3.9,0c-0.1,4.8-3.7,8.8-8.8,8.8c-5.7,0-9.2-4.5-9.2-8.7c0,0,0-0.1,0-0.1L287,64.8L287,64.8z
	 M308.3,64.8v4.7c0,2.1,0,2.5,1.6,2.7c0.9,0.1,1.1,0.3,1.1,0.6c0,0.4-0.4,0.4-0.6,0.4c-0.6,0-3.2-0.2-3.9-0.2
	c-0.6,0-3.2,0.2-3.8,0.2c-0.3,0-0.7,0-0.7-0.5c0-0.3,0.3-0.5,1.1-0.6c1.6-0.2,1.6-0.6,1.6-2.7v-4.8H308.3L308.3,64.8z M319.3,64.8
	v4.7c0,2.1,0,2.5,1.6,2.7c0.9,0.1,1.1,0.3,1.1,0.6c0,0.4-0.4,0.4-0.6,0.4c-0.6,0-3.3-0.2-3.9-0.2c-0.6,0-3.3,0.2-3.9,0.2
	c-0.3,0-0.6,0-0.6-0.5c0-0.3,0.3-0.5,1.1-0.6c1.6-0.2,1.6-0.6,1.6-2.7v-4.8H319.3L319.3,64.8z"/>
<path class="st4" d="M125.2,53c-2.2,2.2-3.3,5.5-3.3,8.4c0,1.1,0.1,2.2,0.4,3.2l-4.8,0c-0.4-1.1-0.5-2.2-0.5-3.1
	c0-2.9,1.4-6.2,4.3-8.6L125.2,53L125.2,53z M138.1,53l0.2,1.6c0,0.4,0,0.6-0.4,0.6c-0.3,0-0.5-0.1-0.9-0.7c-0.4-0.5-0.7-1-1.1-1.5
	L138.1,53L138.1,53z M267.4,53c0.1,0.1,0.1,0.2,0.1,0.4V56c0,0.7,0.1,0.9,0.9,0.9h2.1c0.5,0,0.8-0.1,1.1-0.1c0.3,0,0.6,0.1,0.5,0.7
	c-0.1,0.7-0.2,0.8-0.7,0.8c-0.6,0-1.5-0.1-3.3-0.1c-0.6,0-0.7,0.1-0.7,0.9v5.7h-3.6v-5.9c0-0.5-0.3-0.7-0.9-0.7c-0.3,0-0.6,0-0.9,0
	c-0.2,0-0.6,0-0.6-0.4c0-0.4,0.4-0.6,0.6-0.7l1-0.5c0.9-0.4,2-1.4,3.3-3.3c0.1-0.1,0.1-0.2,0.2-0.3L267.4,53L267.4,53z M279.7,53
	c-0.3,0.5-1,1-1.7,1c-0.8,0-1.4-0.4-1.8-1L279.7,53L279.7,53z M140,64.8c0-4.2,3.5-8.6,9-8.6c4.2,0,8.9,2.8,8.9,8.4
	c0,0.1,0,0.2,0,0.2l-3.9,0c0-2.6-1.4-7.8-5.4-7.8c-2.7,0-4.9,2.7-4.9,7.2c0,0.2,0,0.4,0,0.6L140,64.8L140,64.8z M161.5,64.8v-2.3
	c0-1.7,0-2.6-1.1-2.6c-0.6,0-1,0-1-0.5c0-0.2,0.1-0.4,0.5-0.5c0.3-0.1,2.6-1.1,3.8-2.4c0.3-0.3,0.6-0.7,0.8-0.7
	c0.3,0,0.4,0.3,0.4,0.7v1.8c0,0.6,0,0.7,0.2,0.7c0.2,0,0.4-0.1,0.5-0.2c2.3-2.1,3.4-2.6,5.5-2.6c2.4,0,5.1,1.3,5.1,4.8v3.9h-3.6
	v-1.9c0-1.7,0-4.5-3.6-4.5c-1.1,0-2.3,0.4-3.1,1.3c-0.6,0.6-0.7,1.2-0.7,2.1v3.1H161.5L161.5,64.8z M183.2,64.8
	c-1.4-0.8-2.5-1.8-2.5-3.6c0-2.1,1.7-5.1,6.6-5.1c0.6,0,3.3,0.4,3.6,0.4c0.9,0.1,0.9,0.5,0.9,1.1l-0.1,2.2c0,0.1-0.1,0.6-0.4,0.6
	c-0.3,0-0.4-0.1-0.7-0.8c-0.2-0.7-1.2-2.7-3.7-2.7c-1.6,0-3,0.9-3,2.2c0,1.5,0.8,1.8,4.6,3.4c0.8,0.4,2.3,1,3.3,2.2L183.2,64.8
	L183.2,64.8z M194.8,64.8c0.2-5.3,4.3-8.6,9.2-8.6c5.6,0,6.8,4.1,6.8,5.4c0,0.7-0.4,0.7-1,0.7h-9.9c-0.6,0-1,0-1,2
	c0,0.2,0,0.4,0,0.6H194.8L194.8,64.8z M215.2,64.8v-2.4c0-2.3-0.5-2.4-1.9-2.5c-0.1,0-0.5,0-0.5-0.4c0-0.3,0.1-0.4,0.6-0.5
	c0.9-0.3,3-1.4,3.7-2.3c0.1-0.1,0.9-0.9,1.1-0.9c0.4,0,0.4,0.3,0.4,0.6v1.9c0,0.2,0,0.5,0.2,0.5c0.1,0,0.3-0.2,0.3-0.3
	c0.1-0.1,1.9-2.2,4-2.2c1.3,0,2.7,0.7,2.7,2.2c0,1.5-1.3,2.1-2.3,2.1c-0.8,0-1.3-0.3-1.9-1c-0.6-0.7-0.9-0.8-1.1-0.8
	c-0.7,0-1.8,0.6-1.8,3.6v2.3H215.2L215.2,64.8z M231.7,64.8l-1.9-4.6c-1-2.3-1.4-2.5-2.6-2.6c-0.2,0-0.6,0-0.6-0.5
	c0-0.4,0.6-0.4,1-0.4c1.1,0,2.2,0.1,4,0.1c1.9,0,2.7-0.1,3.6-0.1c0.2,0,0.8,0,0.8,0.4c0,0.5-0.7,0.6-1.2,0.6c-0.2,0-1.3,0.1-1.3,1
	c0,0.4,0.3,1.1,0.3,1.2l2,4.8H231.7L231.7,64.8z M239,64.8l1.3-3c0.2-0.5,0.9-2,0.9-2.8c0-1.1-0.9-1.3-1.6-1.3c-1,0-1.3-0.1-1.3-0.5
	c0-0.5,0.5-0.5,0.9-0.5c0.4,0,1.6,0.1,3,0.1c1.9,0,2.7-0.1,3.2-0.1c0.2,0,0.6,0,0.6,0.5c0,0.4-0.1,0.4-1.3,0.6
	c-0.5,0.1-1.4,0.2-2.4,2.5l-2,4.5H239L239,64.8z M251.2,64.8c0.6-0.3,1.4-0.6,2.1-0.9c0.9-0.4,0.9-0.7,0.9-1.3v-2.4
	c0-1.3-0.1-3.1-1.9-3.1c-2.1,0-3,2.3-3.3,3.1c-0.6,1.7-2.7,1.8-2.8,1.8c-0.4,0-0.8-0.3-0.8-0.7c0-1.3,2.3-5.1,8-5.1
	c3.5,0,4.3,1.2,4.3,2.7v5.9h-3.7c-0.1-0.1-0.2-0.1-0.3-0.1c-0.1,0-0.3,0-0.5,0.1L251.2,64.8L251.2,64.8z M276.2,64.8v-2.2
	c0-1.9-0.3-2.4-1.7-2.5c-0.1,0-0.7,0-0.7-0.5c0-0.3,0.1-0.4,0.6-0.6c1.8-0.6,2.6-1.1,3.3-1.5c0.3-0.2,1.4-1.2,1.7-1.2
	c0.4,0,0.4,0.5,0.4,1.3v7.2H276.2L276.2,64.8z M283.2,64.8c0-4.2,3.5-8.6,9-8.6c4.2,0,8.9,2.8,8.9,8.4c0,0.1,0,0.2,0,0.2l-3.9,0
	c0-2.6-1.4-7.8-5.4-7.8c-2.7,0-4.9,2.7-4.9,7.2c0,0.2,0,0.4,0,0.6L283.2,64.8L283.2,64.8z M304.7,64.8v-2.3c0-1.7,0-2.6-1.1-2.6
	c-0.6,0-1,0-1-0.5c0-0.2,0.1-0.4,0.5-0.5c0.3-0.1,2.6-1.1,3.8-2.4c0.3-0.3,0.6-0.7,0.8-0.7c0.3,0,0.4,0.3,0.4,0.7v1.8
	c0,0.6,0,0.7,0.1,0.7c0.2,0,0.4-0.1,0.5-0.2c2.3-2.1,3.4-2.6,5.5-2.6c2.4,0,5.1,1.3,5.1,4.8v3.9h-3.6v-1.9c0-1.7,0-4.5-3.6-4.5
	c-1.1,0-2.3,0.4-3.1,1.3c-0.6,0.6-0.7,1.2-0.7,2.1v3.1H304.7L304.7,64.8z M204.5,61c1.6,0,2.5-0.8,2.5-1.8c0-2.2-2.5-2.3-3.1-2.3
	c-3.3,0-4.5,3-4.5,3.6c0,0.4,0.1,0.4,1,0.4H204.5L204.5,61z"/>
<path class="st4" d="M163.1,39c0,1.3,0.1,2.1,1.8,2.2c0.7,0,1.2,0.1,1.2,0.6c0,0.5-0.4,0.5-0.7,0.5c-0.4,0-1.6-0.1-3.8-0.1
	c-2.8,0-3.5,0.1-3.8,0.1c-0.3,0-0.7,0-0.7-0.5c0-0.5,0.5-0.5,1.2-0.5c1.6-0.1,1.7-0.9,1.7-2.2L163.1,39L163.1,39z M121.3,53
	c2.3-1.9,5.6-3.2,9.8-3.2c1.7,0,2.3,0.1,4.9,0.5c1.7,0.3,1.9,0.6,2,1.6l0.1,1h-2.2c-1.1-1.3-2.5-2.2-5-2.2c-2.3,0-4.2,0.9-5.6,2.2
	L121.3,53L121.3,53z M266.6,53c0.1-0.1,0.3-0.2,0.4-0.2c0.1,0,0.3,0,0.4,0.2L266.6,53L266.6,53z M276.2,53c-0.2-0.3-0.3-0.7-0.3-1
	c0-1,0.9-2,2.1-2c1.2,0,2,0.9,2,2.1c0,0.3-0.1,0.7-0.3,1H276.2L276.2,53z"/>
<path class="st4" d="M125,27.3v3.7c0,2.1,0.6,3.3,3.1,3.3c3.7,0,7.1-2.9,8.1-7l3.9,0c-1,3.5-4,7.8-10.8,7.8c-1,0-5.3-0.1-6.1-0.1
	c-0.6,0-3.8,0.1-3.9,0.1c-0.2,0-0.7,0-0.7-0.5c0-0.5,0.5-0.5,1.2-0.6c1.7-0.1,1.7-1,1.7-2.4v-4.4H125L125,27.3z M145.9,27.3
	c0.2,3.5,2.6,6.1,5.9,6.1c1.5,0,2.9-0.6,3.7-1.3c0.5-0.5,0.5-0.5,0.7-0.5c0.2,0,0.3,0.2,0.3,0.3c0,0.5-2.3,3.4-6.6,3.4
	c-4.4,0-7.7-2.9-7.7-7.5c0-0.2,0-0.3,0-0.5L145.9,27.3L145.9,27.3z M163.1,27.3v3.9c0,2.9,2.2,3.3,3.2,3.3c2.7,0,5.2-2.5,5.2-6.6
	c0-0.2,0-0.4,0-0.6l3.5,0c-0.1,5.1-4.5,8-8.2,8c-1,0-2.3-0.3-3-0.6c-0.1,0-0.3-0.1-0.4-0.1c-0.4,0-0.4,0.4-0.4,0.7v3.5
	c0,0.1,0,0.1,0,0.2l-3.2,0c0-0.1,0-0.2,0-0.3V27.3H163.1L163.1,27.3z M187.6,27.3v4.1c0,1,0.1,1.9,1,1.9c0.4,0,0.7-0.1,1-0.3
	c0.4-0.3,0.4-0.3,0.6-0.3c0.2,0,0.3,0.2,0.3,0.3c0,0.8-2,2.4-3.5,2.4c-1.3,0-1.9-1-2.3-1.8c-0.3-0.6-0.4-0.6-0.5-0.6
	c-0.1,0-0.2,0.1-0.2,0.1c-1.4,1.1-3.2,2.4-4.7,2.4c-2.4,0-2.6-2.3-2.6-2.8c0-2.2,1.4-3.5,5.2-5.2L187.6,27.3L187.6,27.3z
	 M197.4,27.3v4.4c0,1.4,0,2.3,1.7,2.4c0.7,0,1.2,0.1,1.2,0.6c0,0.5-0.4,0.5-0.7,0.5c-0.6,0-3.3-0.1-3.9-0.1c-0.5,0-2.9,0.1-3.5,0.1
	c-0.2,0-0.6,0-0.6-0.4c0-0.3,0.2-0.4,1-0.5c1.5-0.2,1.5-0.6,1.5-2.4v-4.4H197.4L197.4,27.3z M209.9,27.3v3.1c0,1.5,0.2,3,1.9,3
	c0.5,0,1-0.1,2.1-0.8c0.1-0.1,0.3-0.1,0.4-0.1c0.2,0,0.3,0.2,0.3,0.3c0,0.5-2.1,2.5-4.6,2.5c-1.7,0-3.4-1.1-3.4-3.6v-4.4H209.9
	L209.9,27.3z M220.9,27.3v4.4c0,1.9,0,2.3,1.4,2.5c0.8,0.1,1,0.3,1,0.6c0,0.4-0.3,0.4-0.6,0.4c-0.4,0-1.7-0.1-3.4-0.1
	c-1.5,0-2.9,0.1-3.4,0.1c-0.3,0-0.6,0-0.6-0.4c0-0.3,0.3-0.4,1-0.5c1.4-0.2,1.4-0.6,1.4-2.4v-4.4H220.9L220.9,27.3z M230.4,27.3v4.4
	c0,1.9,0,2.3,1.4,2.5c0.8,0.1,1,0.3,1,0.6c0,0.4-0.3,0.4-0.6,0.4c-0.5,0-1.6-0.1-3.4-0.1c-1.8,0-2.9,0.1-3.4,0.1
	c-0.3,0-0.6,0-0.6-0.4c0-0.3,0.2-0.4,1-0.5c1.4-0.2,1.4-0.6,1.4-2.5v-4.4H230.4L230.4,27.3z M239.8,27.3v4.4c0,1.9,0,2.3,1.4,2.5
	c0.8,0.1,1,0.3,1,0.6c0,0.4-0.3,0.4-0.6,0.4c-0.5,0-1.7-0.1-3.4-0.1c-1.9,0-2.9,0.1-3.4,0.1c-0.2,0-0.6,0-0.6-0.4
	c0-0.3,0.3-0.4,1-0.5c1.4-0.2,1.4-0.6,1.4-2.5v-4.4H239.8L239.8,27.3z M246.4,27.3c0.2,3.5,2.6,6.1,5.9,6.1c1.5,0,2.9-0.6,3.7-1.3
	c0.5-0.5,0.5-0.5,0.7-0.5c0.2,0,0.3,0.2,0.3,0.3c0,0.5-2.3,3.4-6.6,3.4c-4.4,0-7.7-2.9-7.7-7.5c0-0.2,0-0.3,0-0.5L246.4,27.3
	L246.4,27.3z M263.5,27.3v4.4c0,1.9,0,2.3,1.4,2.5c0.8,0.1,1,0.3,1,0.6c0,0.4-0.3,0.4-0.6,0.4c-0.5,0-2.9-0.1-3.5-0.1
	c-0.5,0-2.9,0.1-3.4,0.1c-0.3,0-0.6,0-0.6-0.4c0-0.3,0.3-0.4,1-0.5c1.4-0.2,1.4-0.6,1.4-2.4v-4.4H263.5L263.5,27.3z M273.4,27.3v4.4
	c0,1.9,0,2.3,1.4,2.5c0.8,0.1,1,0.3,1,0.6c0,0.4-0.3,0.4-0.6,0.4c-0.5,0-2.9-0.1-3.5-0.1c-0.5,0-2.9,0.1-3.5,0.1
	c-0.2,0-0.6,0-0.6-0.4c0-0.3,0.2-0.4,1-0.5c1.4-0.2,1.4-0.6,1.4-2.4v-4.4H273.4L273.4,27.3z M281.2,27.3v3.1c0,1.5,0.2,3,1.9,3
	c0.5,0,1-0.1,2.1-0.8c0.1-0.1,0.3-0.1,0.4-0.1c0.2,0,0.3,0.2,0.3,0.3c0,0.5-2.1,2.5-4.6,2.5c-1.7,0-3.4-1.1-3.4-3.6v-4.4H281.2
	L281.2,27.3z M296.8,27.3c0.1,3.9,2.1,7.2,4.7,7.2c2.4,0,4.5-3.1,4.5-7c0-0.1,0-0.1,0-0.2l3.5,0c-0.1,4.4-3.3,8-7.9,8
	c-5.2,0-8.2-4.1-8.2-7.8c0-0.1,0-0.1,0-0.2L296.8,27.3L296.8,27.3z M316,27.3v4.4c0,1.4,0,2.3,1.7,2.4c0.7,0,1.2,0.1,1.2,0.6
	c0,0.5-0.4,0.5-0.7,0.5c-0.3,0-1.5-0.1-3.8-0.1c-2.2,0-3.6,0.1-3.8,0.1c-0.3,0-0.7,0-0.7-0.5c0-0.5,0.5-0.5,1.2-0.5
	c1.7-0.1,1.7-1,1.7-2.4v-4.4H316L316,27.3z M184.4,27.7c0-0.3-0.2-0.4-0.4-0.4c-0.5,0-1.3,0.4-1.8,0.7c-2.1,1-2.1,2.3-2.1,2.9
	c0,1.6,0.8,2.2,1.5,2.2c1.5,0,2.8-1.2,2.8-3.5V27.7L184.4,27.7z"/>
<path class="st4" d="M125.4,15.6c-0.4,0.4-0.4,1.1-0.4,2.1v9.6h-3.6v-9.8c0-1.4-0.4-1.8-1.1-1.8c-0.2,0-1.2,0.3-1.4,0.3
	c-0.3,0-0.5-0.1-0.5-0.3L125.4,15.6L125.4,15.6z M134.9,15.6c0.4,0.2,0.8,0.5,1.2,0.7c2.7,1.9,4.4,5.1,4.4,8.3
	c0,0.8-0.1,1.7-0.4,2.7l-3.9,0c0.2-0.8,0.3-1.6,0.3-2.5c0-3.1-1.5-7.7-5.9-9.2L134.9,15.6L134.9,15.6z M316.5,15.6
	c-0.5,1.3-0.5,3.1-0.5,3.8c0,0.7,0.1,0.9,0.7,0.9h1.6c0.9,0,1.2-0.1,1.5-0.1c0.3,0,0.5,0.2,0.5,1c0,0.3-0.1,0.4-0.5,0.4
	c-0.7,0-1.2-0.1-3-0.1c-0.6,0-0.7,0.2-0.7,0.8v5h-3.2v-4.6c0-1.1-0.2-1.2-0.8-1.2c-0.1,0-0.7,0.1-0.8,0.1c-0.3,0-0.5-0.1-0.5-0.4
	c0-0.4,0.4-0.6,1.3-0.8c0.7-0.1,0.8-0.2,1-1.7c0.2-1.3,0.7-2.3,1.3-3.1L316.5,15.6L316.5,15.6z M321.9,15.6
	c-0.3,0.4-0.6,0.8-0.9,0.8c-0.4,0-0.9-0.5-1-0.7c0-0.1-0.1-0.1-0.1-0.1L321.9,15.6L321.9,15.6z M142.2,27.3c0.2-4.7,3.9-7.7,8.3-7.7
	c5,0,6.1,3.7,6.1,4.8c0,0.6-0.4,0.6-0.9,0.6h-8.9c-0.6,0-0.9,0-0.9,1.8c0,0.2,0,0.3,0,0.5L142.2,27.3L142.2,27.3z M159.9,27.3v-1.8
	c0-2.1,0-2.6-1.2-2.6c-0.5,0-0.9,0-0.9-0.5c0-0.3,0.1-0.4,1.2-0.8c0.6-0.2,2.1-0.9,3.1-2.1c0.2-0.3,0.4-0.4,0.6-0.4
	c0.4,0,0.3,0.4,0.3,0.7v1.4c0,0.3,0,0.7,0.4,0.7c0.2,0,0.3-0.1,0.4-0.2c2.4-1.9,3.4-2,4.3-2c3.6,0,6.8,3,6.8,7.6c0,0,0,0.1,0,0.1
	l-3.5,0c-0.2-3.7-2.7-5.6-5.3-5.6c-3.1,0-3.1,2.1-3.1,2.9v2.7H159.9L159.9,27.3z M181.9,27.3c0.5-0.2,1.1-0.5,1.7-0.7
	c0.8-0.3,0.8-0.6,0.8-1.2v-2.2c0-1.2-0.1-2.8-1.7-2.8c-1.9,0-2.7,2-2.9,2.8c-0.5,1.5-2.5,1.6-2.5,1.6c-0.4,0-0.7-0.2-0.7-0.7
	c0-1.1,2.1-4.6,7.2-4.6c3.1,0,3.9,1.1,3.9,2.4v5.2H181.9L181.9,27.3z M194.2,27.3v-2c0-2.1-0.4-2.2-1.7-2.2c-0.1,0-0.4,0-0.4-0.4
	c0-0.2,0.1-0.4,0.5-0.5c0.8-0.3,2.7-1.3,3.4-2c0.1-0.1,0.8-0.8,1-0.8c0.3,0,0.4,0.3,0.4,0.6v1.7c0,0.2,0,0.5,0.2,0.5
	c0.1,0,0.3-0.2,0.3-0.3c0.1-0.1,1.7-2,3.6-2c1.2,0,2.4,0.7,2.4,2c0,1.4-1.2,1.9-2,1.9c-0.7,0-1.2-0.3-1.7-0.9
	c-0.6-0.6-0.8-0.7-1-0.7c-0.7,0-1.6,0.5-1.6,3.3v1.9H194.2L194.2,27.3z M206.7,27.3V22c0-0.4-0.3-0.6-0.8-0.6c-0.3,0-0.5,0-0.8,0
	c-0.2,0-0.6,0-0.6-0.4c0-0.3,0.4-0.5,0.5-0.6L206,20c0.8-0.4,1.8-1.3,2.9-3c0.1-0.2,0.3-0.4,0.6-0.4c0.1,0,0.4,0,0.4,0.5v2.3
	c0,0.6,0.1,0.8,0.8,0.8h1.9c0.5,0,0.7-0.1,1-0.1c0.3,0,0.5,0.1,0.4,0.7c-0.1,0.6-0.2,0.7-0.6,0.7c-0.6,0-1.3-0.1-2.9-0.1
	c-0.6,0-0.6,0.1-0.6,0.8v5H206.7L206.7,27.3z M217.7,27.3v-2c0-1.6,0-2.3-1-2.4c-0.5,0-0.9,0-0.9-0.5c0-0.2,0.1-0.3,0.5-0.4
	c0.2-0.1,2.4-1,3.4-2.2c0.2-0.3,0.5-0.6,0.7-0.6c0.3,0,0.4,0.3,0.4,0.6v1.6c0,0.6,0,0.7,0.1,0.7c0.1,0,0.3-0.2,0.5-0.4
	c1.9-2,3.1-2.2,4.6-2.2c0.4,0,2.5,0,3.5,1.7c0.5,0.7,0.5,0.8,0.7,0.8c0.2,0,1-0.8,1.2-1c1.3-1.1,2.6-1.6,3.7-1.6
	c4.3,0,4.7,3,4.7,4.1v3.6h-3.2v-2.6c0-1,0-3.2-2.8-3.2c-1.5,0-2.5,0.7-2.9,1.1c-0.5,0.5-0.5,1.2-0.5,1.9v2.8h-3.2v-2.1
	c0-1.7-0.5-3.6-2.8-3.6c-1.5,0-2.2,0.4-2.9,1.1c-0.4,0.5-0.5,1.1-0.5,1.9v2.7H217.7L217.7,27.3z M242.7,27.3
	c0.2-4.7,3.9-7.7,8.3-7.7c5,0,6.1,3.7,6.1,4.8c0,0.6-0.4,0.6-0.9,0.6h-8.9c-0.6,0-0.9,0-0.9,1.8c0,0.2,0,0.3,0,0.5L242.7,27.3
	L242.7,27.3z M260.3,27.3v-2c0-1.6,0-2.3-1-2.4c-0.5,0-0.9,0-0.9-0.5c0-0.2,0.1-0.3,0.5-0.4c0.2-0.1,2.4-1,3.4-2.2
	c0.2-0.3,0.5-0.6,0.7-0.6c0.3,0,0.4,0.3,0.4,0.6v1.6c0,0.6,0,0.7,0.1,0.7c0.2,0,0.4-0.1,0.5-0.2c2-1.9,3-2.3,4.9-2.3
	c2.2,0,4.6,1.2,4.6,4.3v3.4h-3.2v-1.6c0-1.6,0-4.1-3.3-4.1c-1,0-2,0.4-2.8,1.1c-0.5,0.5-0.6,1.1-0.6,1.9v2.7H260.3L260.3,27.3z
	 M278,27.3V22c0-0.4-0.3-0.6-0.8-0.6c-0.3,0-0.5,0-0.8,0c-0.2,0-0.6,0-0.6-0.4c0-0.3,0.4-0.5,0.5-0.6l0.9-0.5c0.8-0.4,1.8-1.3,2.9-3
	c0.1-0.2,0.3-0.4,0.6-0.4c0.1,0,0.4,0,0.4,0.5v2.3c0,0.6,0.1,0.8,0.8,0.8h1.9c0.5,0,0.7-0.1,1-0.1c0.3,0,0.5,0.1,0.4,0.7
	c-0.1,0.6-0.2,0.7-0.6,0.7c-0.6,0-1.3-0.1-2.9-0.1c-0.6,0-0.6,0.1-0.6,0.8v5H278L278,27.3z M293.3,27.3c0.1-3.8,3.2-7.7,8.1-7.7
	c3.8,0,8,2.5,8,7.5c0,0,0,0.1,0,0.1l-3.5,0c-0.1-2.4-1.3-6.9-4.8-6.9c-2.4,0-4.4,2.4-4.4,6.5c0,0.1,0,0.3,0,0.4L293.3,27.3
	L293.3,27.3z M150.8,24c1.4,0,2.3-0.7,2.3-1.6c0-2-2.3-2-2.8-2c-3,0-4,2.7-4,3.3c0,0.4,0.1,0.4,0.9,0.4H150.8L150.8,24z M251.4,24
	c1.4,0,2.3-0.7,2.3-1.6c0-2-2.3-2-2.8-2c-3,0-4,2.7-4,3.3c0,0.4,0.1,0.4,0.9,0.4H251.4L251.4,24z"/>
<path class="st4" d="M118.5,15.6C118.5,15.6,118.5,15.5,118.5,15.6c0-1,5.6-1.4,8.7-1.4c3.5,0,5.8,0.5,7.7,1.4l-4.2,0
	c-1-0.4-2.1-0.6-3.4-0.6c-0.9,0-1.5,0.2-1.8,0.6L118.5,15.6L118.5,15.6z M314.3,15.6c1.5-1.8,3.8-2.6,5.3-2.6c0.5,0,2.8,0.1,2.8,1.4
	c0,0.2-0.2,0.8-0.5,1.2l-2.1,0c-0.9-1.2-1.2-1.5-1.8-1.5c-0.8,0-1.3,0.7-1.6,1.5L314.3,15.6L314.3,15.6z"/>
</svg>
